<svg width="900" height="400" viewBox="0 0 900 400" fill="none" xmlns="http://www.w3.org/2000/svg">
<path d="M196.474 294.077C209.622 286.771 212.185 265.305 205.567 237.098C233.268 229.904 250.791 217.433 251.523 202.451C251.359 198.897 250.504 195.729 248.57 192.249C242.768 181.808 227.421 172.117 206.537 165.502C211.949 144.275 212.212 126.82 206.023 115.684C204.089 112.203 201.85 109.804 198.919 107.789C186.197 101.193 166.352 109.488 145.227 128.515C125.156 108.695 104.496 99.2236 92.0398 106.145C78.8918 113.452 76.3293 134.917 82.9471 163.124C55.6328 171.015 37.4172 183.871 37.378 198.468C37.5411 202.021 38.3963 205.19 40.3303 208.67C46.1322 219.111 61.48 228.802 82.3639 235.417C76.9518 256.644 76.6889 274.099 82.8776 285.235C84.8116 288.716 87.0507 291.115 89.9819 293.13C102.399 300.806 122.935 292.127 144.06 273.1C163.745 292.224 184.018 300.999 196.474 294.077ZM239.574 197.248C240.735 199.336 241.508 200.728 240.511 202.193C240.837 209.299 230.926 217.54 215.234 223.528C211.387 224.754 206.848 226.366 203.001 227.592C200.822 218.782 197.26 210.741 193.615 200.923C197.828 192.206 201.348 183.872 203.79 175.228C222.516 181.219 235.32 189.591 239.574 197.248ZM144.036 233.941C137.645 233.848 131.254 233.756 125.168 232.583C121.382 227.399 118.287 221.831 115.193 216.262C112.099 210.694 109.004 205.126 106.602 199.173C109.207 194.081 112.504 188.605 115.414 182.433C118.71 176.957 122.007 171.481 125.691 166.701C131.695 166.098 138.086 166.19 144.478 166.282C150.869 166.375 157.647 167.163 164.038 167.255C167.824 172.439 170.918 178.008 174.013 183.576C177.107 189.144 180.202 194.713 182.604 200.666C179.999 205.757 177.089 211.929 173.1 217.79C169.803 223.266 166.507 228.742 162.823 233.522C156.819 234.125 150.427 234.033 144.036 233.941ZM155.151 244.162C151.467 248.942 147.397 253.026 144.018 256.725C139.927 252.622 136.527 248.134 133.128 243.647C136.669 243.5 140.597 244.05 144.139 243.904C147.375 244.839 151.609 244.308 155.151 244.162ZM94.433 227.799C95.9591 222.396 98.1771 216.608 100.782 211.517C102.716 214.997 104.65 218.477 106.197 221.261C108.131 224.742 110.065 228.222 111.612 231.006C105.913 230.529 99.827 229.356 94.433 227.799ZM100.718 186.955C98.7029 181.699 96.6873 176.442 95.3638 170.8C100.981 169.501 106.986 168.897 111.911 167.982C109.917 170.912 107.922 173.842 106.315 177.469C104.707 181.095 102.713 184.025 100.718 186.955ZM133.363 156.061C137.047 151.281 141.117 147.197 144.801 142.417C148.892 146.52 152.292 151.008 156.078 156.192C152.15 155.642 148.608 155.788 144.68 155.238C140.833 156.465 137.292 156.611 133.363 156.061ZM194.081 172.424C192.555 177.827 189.95 182.919 188.424 188.322C186.49 184.841 184.943 182.057 183.009 178.577C181.075 175.097 179.528 172.313 177.594 168.832C182.988 170.39 189.074 171.563 194.081 172.424ZM182.199 222.754C183.807 219.128 185.801 216.198 187.409 212.571C189.811 218.524 191.826 223.781 193.15 229.423C187.532 230.722 181.528 231.326 175.524 231.93C177.905 229.695 179.899 226.765 182.199 222.754ZM162.935 127.785C176.306 117.621 187.847 113.941 194.401 117.587C195.867 118.595 197.332 119.602 198.106 120.994C202.361 128.651 202.321 143.248 197.52 162.314C189.276 160.518 179.954 158.411 170.326 157.384C164.993 149.416 158.967 141.833 152.636 135.33C155.71 132.711 159.475 129.708 162.935 127.785ZM90.7615 147.85C88.9484 131.549 91.5321 118.27 97.0681 115.194C103.296 111.733 114.858 116.24 127.743 126.389C131.061 129.1 134.379 131.811 137.391 135.603C130.94 141.921 124.875 148.935 119.584 157.341C110.038 158.091 100.879 159.537 92.7982 161.294C91.8615 156.349 91.3115 152.099 90.7615 147.85ZM47.3107 198.414C46.9843 191.308 56.8959 183.067 72.5883 177.08C76.4351 175.853 80.9738 174.242 85.5126 172.631C88.3834 181.056 91.2541 189.482 95.2036 198.219C90.9912 206.937 87.8576 215.966 85.0291 223.915C66.3029 217.923 53.8862 210.247 49.6315 202.591C48.1659 201.583 48.0843 199.807 47.3107 198.414ZM125.966 273.134C112.594 283.298 101.054 286.978 94.4995 283.332C93.0339 282.324 91.5684 281.317 90.7948 279.925C86.54 272.268 86.5793 257.671 91.381 238.605C100.011 241.097 108.947 242.508 118.574 243.535C123.908 251.503 129.933 259.086 135.185 265.278C132.804 267.512 129.731 270.131 125.966 273.134ZM160.771 273.834C157.453 271.123 154.135 268.412 151.122 264.62C156.882 258.687 162.947 251.672 168.625 243.962C178.171 243.212 187.33 241.767 196.489 240.321C197.039 244.57 198.668 249.131 199.218 253.38C201.031 269.682 198.753 281.88 192.525 285.34C185.91 288.105 173.656 283.983 160.771 273.834Z" fill="#5E07CD"/>
<path d="M127.344 210.421C132.759 220.166 144.626 223.592 154.314 218.209C164.002 212.825 167.359 200.938 161.944 191.194C156.529 181.449 144.662 178.023 134.974 183.406C125.286 188.79 121.929 200.676 127.344 210.421Z" fill="#5E07CD"/>
<path d="M294.766 228H286.426V177.619H294.766V228ZM331.406 201.477C332.454 201.613 333.571 201.955 334.756 202.502C335.941 203.049 337.035 203.824 338.037 204.826C339.085 205.829 339.951 207.059 340.635 208.518C341.318 209.93 341.66 211.571 341.66 213.439C341.66 215.718 341.318 217.678 340.635 219.318C339.951 220.959 339.085 222.326 338.037 223.42C337.035 224.468 335.918 225.311 334.688 225.949C333.503 226.542 332.34 226.997 331.201 227.316C330.107 227.635 329.128 227.84 328.262 227.932C327.396 227.977 326.826 228 326.553 228H318.623V221.984H326.074C328.49 221.984 330.381 221.21 331.748 219.66C333.115 218.111 333.799 216.037 333.799 213.439C333.799 210.979 333.092 208.905 331.68 207.219C330.267 205.533 328.193 204.689 325.459 204.689H318.623V199.152H321.904C322.907 199.152 323.932 199.13 324.98 199.084C326.029 199.038 327.008 198.788 327.92 198.332C328.831 197.876 329.561 197.102 330.107 196.008C330.7 194.914 330.996 193.342 330.996 191.291C330.996 190.471 330.882 189.628 330.654 188.762C330.426 187.85 329.971 187.03 329.287 186.301C328.604 185.572 327.624 184.979 326.348 184.523C325.072 184.068 323.385 183.84 321.289 183.84H318.623V177.619H322.109C324.251 177.619 326.325 177.87 328.33 178.371C330.335 178.872 332.113 179.67 333.662 180.764C335.212 181.857 336.442 183.293 337.354 185.07C338.265 186.802 338.721 188.876 338.721 191.291C338.721 192.704 338.493 194.003 338.037 195.188C337.581 196.327 337.012 197.329 336.328 198.195C335.645 199.061 334.847 199.79 333.936 200.383C333.07 200.93 332.227 201.294 331.406 201.477ZM307.617 177.619H315.82V228H307.617V177.619ZM353.076 177.619H361.279V228H353.076V177.619ZM387.256 228H378.574L369.072 209.748C368.936 209.748 368.776 209.771 368.594 209.816C368.457 209.816 368.229 209.816 367.91 209.816C367.591 209.816 367.113 209.816 366.475 209.816C365.882 209.816 365.085 209.816 364.082 209.816V203.801H368.73C369.733 203.801 370.736 203.641 371.738 203.322C372.741 202.958 373.652 202.388 374.473 201.613C375.293 200.839 375.954 199.768 376.455 198.4C376.956 196.988 377.207 195.256 377.207 193.205C377.207 192.385 377.093 191.451 376.865 190.402C376.637 189.309 376.159 188.283 375.43 187.326C374.746 186.324 373.766 185.503 372.49 184.865C371.214 184.182 369.528 183.84 367.432 183.84H364.082V177.619H367.568C369.71 177.619 371.829 177.961 373.926 178.645C376.022 179.328 377.891 180.354 379.531 181.721C381.217 183.088 382.562 184.751 383.564 186.711C384.613 188.625 385.137 190.79 385.137 193.205C385.137 196.851 384.294 199.95 382.607 202.502C380.921 205.054 378.643 206.945 375.771 208.176L387.256 228ZM439.619 228H431.143L418.086 190.266L404.893 228H396.348L413.984 177.688H422.119L439.619 228ZM422.598 212.004L424.58 217.541H411.523L413.438 212.004H422.598ZM488.701 177.619V228H480.498V205.305H461.494V199.699H480.498V177.619H488.701ZM450.352 177.619H458.691V228H450.352V177.619ZM509.893 228H501.553V177.619H509.893V228ZM522.471 177.619H530.811L544.346 208.723V221.369H542.158L530.811 193.342V228H522.471V177.619ZM560.684 177.619H569.023V228H560.684V193.342L549.404 221.369H547.148V208.859L560.684 177.619ZM638.818 177.619V228H630.615V205.305H611.611V199.699H630.615V177.619H638.818ZM600.469 177.619H608.809V228H600.469V177.619ZM660.01 228H651.67V177.619H660.01V228ZM713.877 228H705.4L692.344 190.266L679.15 228H670.605L688.242 177.688H696.377L713.877 228ZM696.855 212.004L698.838 217.541H685.781L687.695 212.004H696.855ZM724.336 177.619H732.539V228H724.336V177.619ZM758.516 228H749.834L740.332 209.748C740.195 209.748 740.036 209.771 739.854 209.816C739.717 209.816 739.489 209.816 739.17 209.816C738.851 209.816 738.372 209.816 737.734 209.816C737.142 209.816 736.344 209.816 735.342 209.816V203.801H739.99C740.993 203.801 741.995 203.641 742.998 203.322C744.001 202.958 744.912 202.388 745.732 201.613C746.553 200.839 747.214 199.768 747.715 198.4C748.216 196.988 748.467 195.256 748.467 193.205C748.467 192.385 748.353 191.451 748.125 190.402C747.897 189.309 747.419 188.283 746.689 187.326C746.006 186.324 745.026 185.503 743.75 184.865C742.474 184.182 740.788 183.84 738.691 183.84H735.342V177.619H738.828C740.97 177.619 743.089 177.961 745.186 178.645C747.282 179.328 749.15 180.354 750.791 181.721C752.477 183.088 753.822 184.751 754.824 186.711C755.872 188.625 756.396 190.79 756.396 193.205C756.396 196.851 755.553 199.95 753.867 202.502C752.181 205.054 749.902 206.945 747.031 208.176L758.516 228ZM769.795 177.619H778.135V228H769.795V177.619ZM799.189 205.305H780.938V199.699H799.189V205.305ZM780.938 221.779H801.309V228H780.938V221.779ZM801.309 177.619V183.84H780.938V177.619H801.309ZM853.809 228H845.332L832.275 190.266L819.082 228H810.537L828.174 177.688H836.309L853.809 228ZM836.787 212.004L838.77 217.541H825.713L827.627 212.004H836.787Z" fill="#5E07CD"/>
</svg>
